<svg xmlns="http://www.w3.org/2000/svg" width="16" height="16" fill="currentColor" class="bi bi-globe" viewBox="0 0 16 16">
  <path d="M0 8a8 8 0 1 1 16 0A8 8 0 0 1 0 8zm7.5-6.923c-.67.204-1.335.82-1.887 1.855A7.97 7.97 0 0 0 5.145 4.06a.75.75 0 0 1-1.22.51 6.5 6.5 0 0 1-.335-1.54.75.75 0 0 0-1.4-.165A6.5 6.5 0 0 0 1.01 8c0 .71.133 1.4.383 2.03a.75.75 0 0 0 1.4.165 6.5 6.5 0 0 1 .335-1.54.75.75 0 0 1 1.22-.51 7.97 7.97 0 0 0 .434-3.015c.67-.204 1.335-.82 1.887-1.855zM15 8a7 7 0 0 0-1.96-4.855.75.75 0 0 0-1.22.51 7.97 7.97 0 0 1-.434 3.015c-.67.204-1.335.82-1.887 1.855A7.97 7.97 0 0 1 8.5 4.06a.75.75 0 0 0-1.22-.51 6.5 6.5 0 0 0-.335 1.54.75.75 0 0 1-1.4.165A6.5 6.5 0 0 1 1.01 8c0 .71.133 1.4.383 2.03a.75.75 0 0 1 1.4.165 6.5 6.5 0 0 0 .335-1.54.75.75 0 0 0-1.22-.51 7.97 7.97 0 0 1 .434-3.015c.67.204 1.335.82 1.887 1.855A7.97 7.97 0 0 0 8.5 11.94a.75.75 0 0 1 1.22.51 6.5 6.5 0 0 1 .335 1.54.75._75 0 0 0 1.4-.165A6.5 6.5 0 0 0 14.99 8z"/>
</svg>
